<svg x="0px" y="0px" viewBox="0 0 515 515" enable-background="new 0 0 515 515" xml:space="preserve">
	<path d="M233.9,91.5v15.8h-22v15.8h22V139H196V91.4L233.9,91.5z"/>
	<path d="M286.1,91.1v13.7h-21.9v2.8h21.9v31.7h-37.8v-14.5h22v-2.7h-22.1v-31C248.2,91.1,286.1,91.1,286.1,91.1z"/>
	<path d="M338.3,91.1v13.7h-21.9v2.8h21.9v31.7h-37.8v-14.5h22v-2.7h-22.1v-31C300.5,91.1,338.3,91.1,338.3,91.1z"/>
	<polygon fill="#264DE4" points="129,156 390.1,156 366.4,422.8 259.2,452.6 152.6,422.8 "/>
	<polygon fill="#2965F1" points="259.5,178 366.4,178 346.1,405.7 259.5,429.7 "/>
	<polygon fill="#FFFFFF" points="176.8,209 179.8,242.1 306.3,242.1 303.1,275.8 182.4,275.8 185.7,309.1 300.3,309.1 296.4,351.8 
		259.8,361.8 222.5,352 220.4,325.8 187.2,325.7 192,377.8 259.4,396.6 327.5,377.6 342.6,209.2 "/>
	<path class="path" fill="none" stroke="#2965F1" stroke-width="45" stroke-miterlimit="10" d="M256.1,27.2C220.4,27.4,184.8,36,152.8,52 c-32.8,16.5-61.4,40.9-83,70.6c-19.1,26.1-32.6,56.2-39.4,87.8c-6.6,30.7-6.9,62.6-0.9,93.4c6,31,18.4,60.7,36.3,86.8 c18.6,27.2,43.1,50.3,71.3,67.4c27.4,16.6,58.2,27.4,89.9,31.6c31.1,4.1,62.9,1.8,93.1-6.7c30.6-8.6,59.4-23.4,84-43.6 c25.6-20.9,46.6-47.3,61.3-76.9c14.1-28.5,22.3-59.8,23.8-91.5c1.3-26.4-1.9-53-9.5-78.4"/>
</svg>	
