<svg x="0px" y="0px" viewBox="0 0 515 515" enable-background="new 0 0 515 515" xml:space="preserve">
	<polygon fill="#E44D26" points="126,156 387.1,156 363.4,422.8 256.2,452.6 149.6,422.8 "/>
	<polygon points="151,84 167,84 167,99 183,99 183,84 199,84 199,133 183,133 183,118 167,118 167,133 151,133 "/>
	<polygon points="207,84 252,84 252,99 238,99 238,133 221,133 221,99 207,99 "/>
	<polygon points="260,84 276.1,84 287,101.4 297.7,84 315.3,84 314.7,133.8 298,133.7 298,109.4 286.7,126.4 275,108.4 275,133 260,133 "/>
	<polygon points="324,84 341,84 341,118 364,118 364,133 324,133 "/>
	<polygon fill="#F16529" points="256.5,178 363.4,178 343.1,405.7 256.5,429.7 "/>
	<polygon fill="#FFFFFF" points="335.7,244 210,244 213.4,277 332.4,277 323.4,377.4 256.3,396.2 189.3,377.5 184.7,326 217.4,326 219.9,352.4 256.5,362.2 292.9,351.9 296.6,309 183.1,309 174.4,210.5 338.4,210.9 "/>
	<path class="path" fill="none" stroke="#F16529" stroke-width="45" stroke-miterlimit="10" d="M255.1,27.2c-67.7,0.4-134.7,30.3-180.2,87.4 c-80,100.2-63.5,246.3,36.7,326.2s246.3,63.5,326.2-36.7s63.5-246.3-36.7-326.2"/>
</svg>