<svg x="0px" y="0px" viewBox="335.5 -26 515 515" enable-background="new 335.5 -26 515 515" xml:space="preserve">
	<circle fill="#4F3030" cx="599.2" cy="230.1" r="177.5"/>
	<path fill="#DF3A5C" d="M503.3,326.7V132.3h39.5v194.4H503.3L503.3,326.7z"/>
	<path fill="#DF3A5C" d="M695.1,326.7h-34.5V306c-11.9,16.3-28.2,23.8-43.9,23.8c-16.3,0-30.1-6.3-41.4-19.4 c-11.3-13.2-17.6-31.4-17.6-54.6c0-23.8,5.6-42,16.9-54.6s25.7-18.8,42.6-18.8c15.7,0,29.5,6.3,40.8,19.4v-69.6h37L695.1,326.7 L695.1,326.7z M595.4,253.3c0,15.1,1.9,25.7,6.3,32.6c6.3,10,14.4,14.4,25.1,14.4c8.8,0,15.7-3.8,21.9-10.7 c6.3-7.5,8.8-18.2,8.8-32.6c0-16.3-3.1-27.6-8.8-35.1c-5.6-6.9-13.2-10.7-22.6-10.7c-8.8,0-16.3,3.8-21.9,10.7 C598.6,228.8,595.4,239.5,595.4,253.3z"/>
	<path class="path" fill="none" stroke="#DF3A5C" stroke-width="45" stroke-miterlimit="10" d="M599-1C472.5-1,368.2,102.4,368.2,230 s103.4,231.2,231,231.2"/>
</svg>