<svg x="0px" y="0px" viewBox="0 0 515 515" enable-background="new 0 0 515 515" xml:space="preserve">
	<polygon fill="#E5A228" points="127,155 388.1,155 364.4,421.8 257.2,451.6 150.6,421.8 "/>
	<polygon fill="#F0BD20" points="257.5,177 364.4,177 344.1,404.7 257.5,428.7 "/>
	<path d="M300.9,92.2V106H279v2.8h21.9v31.7h-37.8V126h22v-2.7H263v-31C263.1,92.2,300.9,92.2,300.9,92.2z"/>
	<path d="M232.8,92.4h17v47.8h-38.1V125h21C232.7,125,232.6,92.4,232.8,92.4z"/>
	<polygon fill="#FFFFFF" points="336.7,242 211,242 214.4,275 333.4,275 324.4,375.4 257.3,394.2 190.3,375.5 185.7,324 218.4,324  220.9,350.4 257.5,360.2 293.9,349.9 297.6,307 184.1,307 175.4,208.5 339.4,208.9 "/>
	<path class="path" fill="none" stroke="#F0BD20" stroke-width="45" stroke-miterlimit="10" d="M256.1,22.2C220.4,22.4,184.8,31,152.8,47 c-32.8,16.5-61.4,40.9-83,70.6c-19.1,26.1-32.6,56.2-39.4,87.8c-6.6,30.7-6.9,62.6-0.9,93.4c6,31,18.4,60.7,36.3,86.8 c18.6,27.2,43.1,50.3,71.3,67.4c27.4,16.6,58.2,27.4,89.9,31.6c31.1,4.1,62.9,1.8,93.1-6.7c30.6-8.6,59.4-23.4,84-43.6 c12.5-10.2,24-21.8,34.1-34.4"/>
</svg>