<svg x="0px" y="0px" viewBox="0 0 515 515" enable-background="new 0 0 515 515" xml:space="preserve">
	<polygon fill="#6C7EB7" points="127,155 388.1,155 364.4,421.8 257.2,451.6 150.6,421.8 "/>
	<polygon points="239,91 255,91 255,106 271,106 271,91 287,91 287,140 271,140 271,125 255,125 255,140 239,140 "/>
	<polygon fill="#9AA0C6" points="257.5,177 364.4,177 344.1,404.7 257.5,428.7 "/>
	<path d="M221,91c-16.2,0-27.3,0-27.3,0l0.1,48.9h15.4v-13.4H221C236.2,126.5,237.2,91,221,91z M212,116.3h-3v-12h3.1 C219.9,104.3,219.9,116.3,212,116.3z"/>
	<path d="M323.7,91c-16.2,0-27.3,0-27.3,0l0.1,48.9h15.4v-13.4h11.9C338.8,126.5,339.9,91,323.7,91z M314.6,116.3h-3v-12h3.1 C322.6,104.3,322.6,116.3,314.6,116.3z"/>
	<polygon fill="#FFFFFF" points="175.3,208.3 339.5,208.3 339.5,240.4 318.7,273.7 335,273.7 332.8,306.2 300.1,306.2 249.6,393.7  217.7,383.8 261.7,308.2 240.8,308.2 234.9,273.4 282.8,273.4 299.2,242.2 180.4,242.2 "/>
	<path class="path" fill="none" stroke="#9AA0C6" stroke-width="45" stroke-miterlimit="10" d="M256.1,22.2c-41.9,0.2-83.7,12-119.5,33.8 c-33.3,20.3-61.4,49.2-80.8,83C34.7,176,24.1,218.4,25.3,260.8C26.5,303,39.3,344.5,62.1,380c21.4,33.3,51.5,60.9,86.4,79.5 c37.5,20,80.3,29.2,122.8,26.6c41.8-2.5,82.7-16.5,117.3-40.1c32.6-22.3,59.3-53.1,76.9-88.5c14.2-28.6,22.4-60.3,23.9-92.2"/>
</svg>	