<svg x="0px" y="0px" viewBox="227 13 515 515" enable-background="new 227 13 515 515" xml:space="preserve">
	<circle fill="#2A4997" cx="482.9" cy="271" r="180.5"/>
	<path fill="#76C8DA" d="M368.1,347.6V191.3c51.7,0,77.2-0.6,88,2.6c8.9,2.6,16.6,7.7,22.3,15.3c11.5,15.3,10.8,40.8,3.8,54.2 c-6.4,12.8-17.9,20.4-29.3,23c-14,2.6-34.4,1.9-52.9,1.9v59.3H368.1L368.1,347.6z M399.3,218.1v44c31.9,0,44,1.3,51.7-10.2 c5.1-7.7,5.1-19.1-1.3-26.2C442,216.8,433.1,218.1,399.3,218.1z"/>
	<path fill="#76C8DA" d="M491.8,315l30-4.5c2.6,12.8,11.5,17.9,24.2,17.9c9.6,0,21-2.6,21-12.1c0-6.4-5.7-8.3-12.1-9.6 c-24.2-5.1-39.5-10.2-45.9-14.7c-8.9-6.4-13.4-14.7-13.4-25.5c0-9.6,3.8-17.9,11.5-24.9c7.7-6.4,19.8-10.2,35.7-10.2 c24.9,0,43.4,5.7,49.7,30l-28.1,5.1c-1.3-4.5-3.2-7.7-7-10.2c-7.7-5.1-25.5-3.8-31.3,0c-4.5,3.2-4.5,8.3-0.6,11.5 c8.9,6.4,45.3,8.9,61.2,21.7c6.4,5.1,9.6,12.8,9.6,22.3c0,10.2-4.5,19.1-12.8,26.8c-8.9,7.7-21.7,10.8-38.3,10.8 c-15.3,0-27.4-3.2-36.4-9.6C500.1,334.2,494.3,325.9,491.8,315z"/>
	<path class="path" fill="none" stroke="#76C8DA" stroke-width="45" stroke-miterlimit="10" d="M482.7,39.9c-42.4,0-84.4,12-120.5,34.2 c-34,21-62.4,50.7-81.8,85.7c-20.6,37.3-30.4,80.1-28.3,122.7c2.1,41.7,15.6,82.6,38.9,117.3c22.3,33.2,53.2,60.3,88.9,78.1 c38.4,19.1,81.9,27.1,124.5,23.1c41.2-3.9,81-19.1,114.4-43.5c19.3-14.1,36.4-31.2,50.5-50.5"/>
</svg>